<?xml version="1.0" standalone="no"?>
<!DOCTYPE svg PUBLIC "-//W3C//DTD SVG 20010904//EN"
 "http://www.w3.org/TR/2001/REC-SVG-20010904/DTD/svg10.dtd">
<svg version="1.0" xmlns="http://www.w3.org/2000/svg"
 width="260.000000pt" height="260.000000pt" viewBox="0 0 260.000000 260.000000"
 preserveAspectRatio="xMidYMid meet">
<metadata>
Created by potrace 1.11, written by Peter Selinger 2001-2013
</metadata>
<g transform="translate(0.000000,260.000000) scale(0.100000,-0.100000)"
fill="#000000" stroke="none">
<path d="M100 2042 l0 -458 -50 -52 -50 -52 0 -126 0 -127 50 -67 50 -67 0
-497 0 -496 1200 0 1200 0 0 484 0 483 39 84 c22 46 45 103 52 126 14 50 8 61
-52 95 l-39 22 0 553 0 553 -1200 0 -1200 0 0 -458z m1396 -322 c70 -61 131
-107 134 -103 4 5 15 37 25 73 9 36 20 70 24 77 4 8 30 -18 70 -68 35 -44 65
-78 67 -76 2 2 10 21 17 42 l14 39 66 -96 67 -96 0 -228 0 -229 -129 -109
c-103 -87 -131 -116 -135 -140 -3 -17 -10 -83 -17 -146 -12 -106 -15 -117 -42
-142 -46 -44 -245 -160 -259 -152 -7 4 -64 43 -125 87 l-113 80 -53 101 c-116
217 -120 223 -185 241 -31 9 -63 18 -71 21 -10 3 -7 13 13 38 31 41 32 46 7
46 -23 0 -125 67 -163 107 -82 86 -75 259 19 463 58 126 88 167 131 186 143
60 284 92 414 93 l97 1 127 -110z m-1224 -264 c31 -13 75 -38 98 -56 51 -41
122 -139 160 -223 27 -61 70 -196 70 -223 0 -26 -188 -50 -250 -32 -35 11
-270 428 -270 479 0 79 79 102 192 55z m2152 -132 c31 -26 56 -53 56 -60 0
-21 -65 -179 -94 -227 -48 -82 -59 -88 -218 -107 -79 -9 -144 -16 -146 -15 -1
1 13 35 32 76 19 41 42 109 52 153 18 77 20 79 78 124 62 47 153 102 172 102
7 0 37 -21 68 -46z"/>
<path d="M1141 1675 c-53 -25 -155 -94 -149 -101 2 -2 33 6 68 18 46 14 105
22 205 27 131 6 140 7 140 26 0 30 -50 49 -135 53 -64 2 -83 -1 -129 -23z"/>
<path d="M1624 1555 c-8 -21 4 -35 30 -35 29 0 131 -61 178 -107 21 -20 40
-34 44 -31 7 7 -21 62 -52 104 -48 63 -185 110 -200 69z"/>
<path d="M1530 1412 c-53 -52 -71 -118 -77 -272 -3 -69 -9 -129 -13 -133 -4
-5 -22 11 -39 36 -66 97 -142 128 -149 62 -2 -17 1 -42 7 -55 9 -22 10 -21 10
18 1 29 5 42 15 42 24 0 75 -49 103 -99 15 -25 28 -48 29 -50 2 -2 26 22 55
53 28 31 60 56 70 56 21 0 23 -11 10 -58 -13 -43 4 -31 19 14 25 76 -15 109
-75 62 l-28 -22 7 60 c9 72 41 194 62 237 9 18 28 44 42 60 42 44 -2 35 -48
-11z"/>
<path d="M1205 1355 c-17 -16 -25 -35 -25 -59 0 -48 8 -65 41 -81 43 -23 77
-18 110 14 37 37 38 79 3 120 -34 41 -92 44 -129 6z"/>
<path d="M1673 1286 c-39 -34 -39 -98 0 -132 58 -49 112 -42 141 21 22 45 14
87 -21 115 -35 27 -85 26 -120 -4z"/>
<path d="M1184 774 c13 -68 57 -152 101 -193 55 -50 109 -66 177 -52 58 13 84
29 109 68 28 42 25 78 -8 91 -61 24 -112 32 -199 32 l-90 0 -49 46 -48 46 7
-38z"/>
<path d="M223 1403 c-7 -3 -13 -15 -13 -27 0 -19 4 -22 29 -18 24 3 38 -4 75
-38 43 -40 45 -43 31 -63 -8 -12 -15 -30 -15 -41 0 -19 1 -19 16 2 37 53 86 1
99 -105 4 -29 12 -53 18 -53 17 0 0 97 -27 156 -38 82 -174 201 -213 187z"/>
<path d="M2274 1241 c-48 -34 -69 -64 -78 -111 -7 -35 -7 -35 13 8 11 23 27
42 36 42 8 0 15 4 15 9 0 6 16 22 35 36 39 30 71 27 85 -8 9 -22 9 -22 9 -1 1
26 -28 54 -56 54 -11 0 -38 -13 -59 -29z"/>
</g>
</svg>
